<mxfile host="Electron" modified="2024-12-09T05:43:15.562Z" agent="Mozilla/5.0 (Windows NT 10.0; Win64; x64) AppleWebKit/537.36 (KHTML, like Gecko) draw.io/21.6.1 Chrome/112.0.5615.204 Electron/24.6.1 Safari/537.36" etag="I0bDFi--2fD4nuDbBOw7" version="21.6.1" type="device">
  <diagram name="Page-1" id="CTBGkxDHiNkrqctMK2qA">
    <mxGraphModel dx="1668" dy="965" grid="1" gridSize="10" guides="1" tooltips="1" connect="1" arrows="1" fold="1" page="1" pageScale="1" pageWidth="850" pageHeight="1100" math="0" shadow="0">
      <root>
        <mxCell id="0" />
        <mxCell id="1" parent="0" />
        <mxCell id="a1SL1FK8whAXVWd6DVwY-4" value="" style="ellipse;html=1;shape=startState;fillColor=#000000;strokeColor=#ff0000;" vertex="1" parent="1">
          <mxGeometry x="405" y="130" width="30" height="30" as="geometry" />
        </mxCell>
        <mxCell id="a1SL1FK8whAXVWd6DVwY-5" value="" style="edgeStyle=orthogonalEdgeStyle;html=1;verticalAlign=bottom;endArrow=open;endSize=8;strokeColor=#ff0000;rounded=0;" edge="1" parent="1">
          <mxGeometry relative="1" as="geometry">
            <mxPoint x="419.75" y="220" as="targetPoint" />
            <mxPoint x="419.75" y="160" as="sourcePoint" />
          </mxGeometry>
        </mxCell>
        <mxCell id="a1SL1FK8whAXVWd6DVwY-6" value="Check Eligibilty of student" style="rounded=1;whiteSpace=wrap;html=1;arcSize=40;fontColor=#000000;fillColor=#ffffc0;strokeColor=#ff0000;" vertex="1" parent="1">
          <mxGeometry x="360" y="220" width="120" height="40" as="geometry" />
        </mxCell>
        <mxCell id="a1SL1FK8whAXVWd6DVwY-7" value="" style="edgeStyle=orthogonalEdgeStyle;html=1;verticalAlign=bottom;endArrow=open;endSize=8;strokeColor=#ff0000;rounded=0;" edge="1" parent="1">
          <mxGeometry relative="1" as="geometry">
            <mxPoint x="419.75" y="320" as="targetPoint" />
            <mxPoint x="419.75" y="260" as="sourcePoint" />
          </mxGeometry>
        </mxCell>
        <mxCell id="a1SL1FK8whAXVWd6DVwY-8" value="" style="rhombus;whiteSpace=wrap;html=1;fontColor=#000000;fillColor=#ffffc0;strokeColor=#ff0000;" vertex="1" parent="1">
          <mxGeometry x="380" y="320" width="80" height="40" as="geometry" />
        </mxCell>
        <mxCell id="a1SL1FK8whAXVWd6DVwY-9" value="if Student not&lt;br&gt;Eligible" style="edgeStyle=orthogonalEdgeStyle;html=1;align=left;verticalAlign=bottom;endArrow=open;endSize=8;strokeColor=#ff0000;rounded=0;" edge="1" source="a1SL1FK8whAXVWd6DVwY-8" parent="1">
          <mxGeometry x="-1" relative="1" as="geometry">
            <mxPoint x="560" y="340" as="targetPoint" />
          </mxGeometry>
        </mxCell>
        <mxCell id="a1SL1FK8whAXVWd6DVwY-10" value="If Student Eligible&lt;br&gt;" style="edgeStyle=orthogonalEdgeStyle;html=1;align=left;verticalAlign=top;endArrow=open;endSize=8;strokeColor=#ff0000;rounded=0;" edge="1" source="a1SL1FK8whAXVWd6DVwY-8" parent="1">
          <mxGeometry x="-1" y="10" relative="1" as="geometry">
            <mxPoint x="420" y="420" as="targetPoint" />
            <mxPoint as="offset" />
          </mxGeometry>
        </mxCell>
        <mxCell id="a1SL1FK8whAXVWd6DVwY-11" value="Alert&quot;Student are Not Eligible&quot;" style="rounded=1;whiteSpace=wrap;html=1;arcSize=40;fontColor=#000000;fillColor=#ffffc0;strokeColor=#ff0000;" vertex="1" parent="1">
          <mxGeometry x="560" y="320" width="120" height="40" as="geometry" />
        </mxCell>
        <mxCell id="a1SL1FK8whAXVWd6DVwY-12" value="" style="edgeStyle=orthogonalEdgeStyle;html=1;verticalAlign=bottom;endArrow=open;endSize=8;strokeColor=#ff0000;rounded=0;" edge="1" source="a1SL1FK8whAXVWd6DVwY-11" parent="1">
          <mxGeometry relative="1" as="geometry">
            <mxPoint x="620" y="420" as="targetPoint" />
          </mxGeometry>
        </mxCell>
        <mxCell id="a1SL1FK8whAXVWd6DVwY-13" value="" style="ellipse;html=1;shape=endState;fillColor=#000000;strokeColor=#ff0000;" vertex="1" parent="1">
          <mxGeometry x="605" y="420" width="30" height="30" as="geometry" />
        </mxCell>
        <mxCell id="a1SL1FK8whAXVWd6DVwY-14" value="Submit Doucment" style="rounded=1;whiteSpace=wrap;html=1;arcSize=40;fontColor=#000000;fillColor=#ffffc0;strokeColor=#ff0000;" vertex="1" parent="1">
          <mxGeometry x="360" y="420" width="120" height="40" as="geometry" />
        </mxCell>
        <mxCell id="a1SL1FK8whAXVWd6DVwY-15" value="" style="edgeStyle=orthogonalEdgeStyle;html=1;verticalAlign=bottom;endArrow=open;endSize=8;strokeColor=#ff0000;rounded=0;" edge="1" source="a1SL1FK8whAXVWd6DVwY-14" parent="1">
          <mxGeometry relative="1" as="geometry">
            <mxPoint x="420" y="520" as="targetPoint" />
          </mxGeometry>
        </mxCell>
        <mxCell id="a1SL1FK8whAXVWd6DVwY-16" value="Check Doucment" style="rounded=1;whiteSpace=wrap;html=1;arcSize=40;fontColor=#000000;fillColor=#ffffc0;strokeColor=#ff0000;" vertex="1" parent="1">
          <mxGeometry x="360" y="520" width="120" height="40" as="geometry" />
        </mxCell>
        <mxCell id="a1SL1FK8whAXVWd6DVwY-17" value="" style="edgeStyle=orthogonalEdgeStyle;html=1;verticalAlign=bottom;endArrow=open;endSize=8;strokeColor=#ff0000;rounded=0;" edge="1" source="a1SL1FK8whAXVWd6DVwY-16" parent="1">
          <mxGeometry relative="1" as="geometry">
            <mxPoint x="420" y="620" as="targetPoint" />
          </mxGeometry>
        </mxCell>
        <mxCell id="a1SL1FK8whAXVWd6DVwY-18" value="" style="rhombus;whiteSpace=wrap;html=1;fontColor=#000000;fillColor=#ffffc0;strokeColor=#ff0000;" vertex="1" parent="1">
          <mxGeometry x="380" y="620" width="80" height="40" as="geometry" />
        </mxCell>
        <mxCell id="a1SL1FK8whAXVWd6DVwY-19" value="If Douctment&lt;br&gt;not corrct" style="edgeStyle=orthogonalEdgeStyle;html=1;align=left;verticalAlign=bottom;endArrow=open;endSize=8;strokeColor=#ff0000;rounded=0;" edge="1" source="a1SL1FK8whAXVWd6DVwY-18" parent="1">
          <mxGeometry x="-1" relative="1" as="geometry">
            <mxPoint x="560" y="640" as="targetPoint" />
          </mxGeometry>
        </mxCell>
        <mxCell id="a1SL1FK8whAXVWd6DVwY-20" value="If Douctment Corrct" style="edgeStyle=orthogonalEdgeStyle;html=1;align=left;verticalAlign=top;endArrow=open;endSize=8;strokeColor=#ff0000;rounded=0;" edge="1" source="a1SL1FK8whAXVWd6DVwY-18" parent="1" target="a1SL1FK8whAXVWd6DVwY-23">
          <mxGeometry x="-1" relative="1" as="geometry">
            <mxPoint x="420" y="720" as="targetPoint" />
          </mxGeometry>
        </mxCell>
        <mxCell id="a1SL1FK8whAXVWd6DVwY-21" value="Alert&quot;Douctment not Valid&quot;" style="rounded=1;whiteSpace=wrap;html=1;arcSize=40;fontColor=#000000;fillColor=#ffffc0;strokeColor=#ff0000;" vertex="1" parent="1">
          <mxGeometry x="560" y="620" width="120" height="40" as="geometry" />
        </mxCell>
        <mxCell id="a1SL1FK8whAXVWd6DVwY-22" value="" style="edgeStyle=orthogonalEdgeStyle;html=1;verticalAlign=bottom;endArrow=open;endSize=8;strokeColor=#ff0000;rounded=0;" edge="1" parent="1">
          <mxGeometry relative="1" as="geometry">
            <mxPoint x="619.74" y="720" as="targetPoint" />
            <mxPoint x="619.74" y="660" as="sourcePoint" />
          </mxGeometry>
        </mxCell>
        <mxCell id="a1SL1FK8whAXVWd6DVwY-23" value="Douctment Correct" style="rounded=1;whiteSpace=wrap;html=1;arcSize=40;fontColor=#000000;fillColor=#ffffc0;strokeColor=#ff0000;" vertex="1" parent="1">
          <mxGeometry x="360" y="700" width="120" height="40" as="geometry" />
        </mxCell>
        <mxCell id="a1SL1FK8whAXVWd6DVwY-24" value="" style="edgeStyle=orthogonalEdgeStyle;html=1;align=left;verticalAlign=top;endArrow=open;endSize=8;strokeColor=#ff0000;rounded=0;" edge="1" parent="1">
          <mxGeometry x="-1" relative="1" as="geometry">
            <mxPoint x="419.9" y="780" as="targetPoint" />
            <mxPoint x="419.9" y="740" as="sourcePoint" />
          </mxGeometry>
        </mxCell>
        <mxCell id="a1SL1FK8whAXVWd6DVwY-25" value="" style="shape=line;html=1;strokeWidth=6;strokeColor=#ff0000;" vertex="1" parent="1">
          <mxGeometry x="320" y="780" width="200" height="10" as="geometry" />
        </mxCell>
        <mxCell id="a1SL1FK8whAXVWd6DVwY-27" value="" style="edgeStyle=orthogonalEdgeStyle;html=1;verticalAlign=bottom;endArrow=open;endSize=8;strokeColor=#ff0000;rounded=0;exitX=0.199;exitY=0.756;exitDx=0;exitDy=0;exitPerimeter=0;" edge="1" parent="1" source="a1SL1FK8whAXVWd6DVwY-25">
          <mxGeometry relative="1" as="geometry">
            <mxPoint x="360" y="850" as="targetPoint" />
            <mxPoint x="360" y="790" as="sourcePoint" />
          </mxGeometry>
        </mxCell>
        <mxCell id="a1SL1FK8whAXVWd6DVwY-28" value="" style="edgeStyle=orthogonalEdgeStyle;html=1;verticalAlign=bottom;endArrow=open;endSize=8;strokeColor=#ff0000;rounded=0;exitX=0.8;exitY=0.732;exitDx=0;exitDy=0;exitPerimeter=0;" edge="1" parent="1" source="a1SL1FK8whAXVWd6DVwY-25">
          <mxGeometry relative="1" as="geometry">
            <mxPoint x="479.87" y="852" as="targetPoint" />
            <mxPoint x="479.87" y="790" as="sourcePoint" />
          </mxGeometry>
        </mxCell>
        <mxCell id="a1SL1FK8whAXVWd6DVwY-29" value="TFW Collage&lt;br&gt;Alloted" style="rounded=1;whiteSpace=wrap;html=1;arcSize=40;fontColor=#000000;fillColor=#ffffc0;strokeColor=#ff0000;" vertex="1" parent="1">
          <mxGeometry x="300" y="850" width="120" height="40" as="geometry" />
        </mxCell>
        <mxCell id="a1SL1FK8whAXVWd6DVwY-30" value="" style="edgeStyle=orthogonalEdgeStyle;html=1;verticalAlign=bottom;endArrow=open;endSize=8;strokeColor=#ff0000;rounded=0;" edge="1" source="a1SL1FK8whAXVWd6DVwY-29" parent="1">
          <mxGeometry relative="1" as="geometry">
            <mxPoint x="360" y="950" as="targetPoint" />
          </mxGeometry>
        </mxCell>
        <mxCell id="a1SL1FK8whAXVWd6DVwY-32" value="Mangement Kota&amp;nbsp;&lt;br&gt;Collage Alloted" style="rounded=1;whiteSpace=wrap;html=1;arcSize=40;fontColor=#000000;fillColor=#ffffc0;strokeColor=#ff0000;" vertex="1" parent="1">
          <mxGeometry x="420" y="850" width="120" height="40" as="geometry" />
        </mxCell>
        <mxCell id="a1SL1FK8whAXVWd6DVwY-33" value="" style="edgeStyle=orthogonalEdgeStyle;html=1;verticalAlign=bottom;endArrow=open;endSize=8;strokeColor=#ff0000;rounded=0;" edge="1" parent="1" source="a1SL1FK8whAXVWd6DVwY-32">
          <mxGeometry relative="1" as="geometry">
            <mxPoint x="480" y="950" as="targetPoint" />
          </mxGeometry>
        </mxCell>
        <mxCell id="a1SL1FK8whAXVWd6DVwY-34" value="" style="shape=line;html=1;strokeWidth=6;strokeColor=#ff0000;" vertex="1" parent="1">
          <mxGeometry x="330" y="950" width="200" height="10" as="geometry" />
        </mxCell>
        <mxCell id="a1SL1FK8whAXVWd6DVwY-35" value="" style="edgeStyle=orthogonalEdgeStyle;html=1;verticalAlign=bottom;endArrow=open;endSize=8;strokeColor=#ff0000;rounded=0;" edge="1" source="a1SL1FK8whAXVWd6DVwY-34" parent="1">
          <mxGeometry relative="1" as="geometry">
            <mxPoint x="430" y="1030" as="targetPoint" />
          </mxGeometry>
        </mxCell>
        <mxCell id="a1SL1FK8whAXVWd6DVwY-36" value="" style="ellipse;html=1;shape=endState;fillColor=#000000;strokeColor=#ff0000;" vertex="1" parent="1">
          <mxGeometry x="415" y="1030" width="30" height="30" as="geometry" />
        </mxCell>
        <mxCell id="a1SL1FK8whAXVWd6DVwY-37" value="" style="ellipse;html=1;shape=endState;fillColor=#000000;strokeColor=#ff0000;" vertex="1" parent="1">
          <mxGeometry x="605" y="720" width="30" height="30" as="geometry" />
        </mxCell>
      </root>
    </mxGraphModel>
  </diagram>
</mxfile>
